<?xml version="1.0" encoding="UTF-8" standalone="no"?>
<!DOCTYPE svg PUBLIC "-//W3C//DTD SVG 1.1//EN" "http://www.w3.org/Graphics/SVG/1.1/DTD/svg11.dtd">
<svg width="100%" height="100%" viewBox="0 0 590 145" version="1.1" xmlns="http://www.w3.org/2000/svg" xmlns:xlink="http://www.w3.org/1999/xlink" xml:space="preserve" xmlns:serif="http://www.serif.com/" style="fill-rule:evenodd;clip-rule:evenodd;stroke-linejoin:round;stroke-miterlimit:2;">
    <g transform="matrix(1,0,0,1,-85,-90)">
        <g id="_4" serif:id="4">
            <g>
                <g transform="matrix(1.222459,0,0,1.218613,-56.121428,-47.103012)">
                    <path d="M163.483,218.921C160.696,218.645 160.709,218.674 160.473,218.623C108.005,207.3 107.05,151.778 128.894,129.876C163.683,94.995 212.14,118.049 220.074,151.594C229.904,193.151 195.523,222.29 163.483,218.921ZM127.033,161.488C126.95,167.905 130.065,165.566 136.5,165.566C166.445,165.566 167.757,166.04 167.972,163.556C168.005,163.178 167.964,130.64 167.98,129.501C168.029,125.894 169.292,123.16 163.561,123.948C150.307,125.769 134.308,136.063 129.315,150.433C127.456,155.785 127.891,155.83 127.033,161.488Z"/>
                </g>
                <g transform="matrix(1.222459,0,0,1.218613,403.878572,-47.103012)">
                    <path d="M163.483,218.921C160.696,218.645 160.709,218.674 160.473,218.623C108.005,207.3 107.05,151.778 128.894,129.876C163.683,94.995 212.14,118.049 220.074,151.594C229.904,193.151 195.523,222.29 163.483,218.921ZM127.033,161.488C126.95,167.905 130.065,165.566 136.5,165.566C166.445,165.566 167.757,166.04 167.972,163.556C168.005,163.178 167.964,130.64 167.98,129.501C168.029,125.894 169.292,123.16 163.561,123.948C150.307,125.769 134.308,136.063 129.315,150.433C127.456,155.785 127.891,155.83 127.033,161.488Z"/>
                </g>
            </g>
            <g transform="matrix(1.028767,0,0,1.053679,-13.348818,-11.633059)">
                <path d="M358.516,232.214C338.961,228.886 326.577,225.992 288.788,202.038C285.343,199.854 284.922,199.39 285.228,188.448C285.426,181.363 315.5,209.441 364.499,213.52C433.589,219.271 472.272,187.291 477.522,186.622C480.037,186.302 480.508,197.933 477.267,200.17C430.368,232.529 397.506,237.593 358.516,232.214Z" style="fill:rgb(2,2,2);"/>
            </g>
        </g>
    </g>
</svg>
